<svg width="81" height="64" viewBox="0 0 81 64" fill="none" xmlns="http://www.w3.org/2000/svg">
<g clip-path="url(#clip0_242_625)">
<path fill-rule="evenodd" clip-rule="evenodd" d="M80.379 35.8076V27.8508H80.2767C80.2086 27.4484 80.1404 27.0443 80.0723 26.6419H79.97C79.9019 26.4399 79.8337 26.2395 79.7656 26.0375H79.6634C79.6293 25.9028 79.5952 25.7681 79.5611 25.6351C79.493 25.6014 79.4248 25.5677 79.3567 25.5341V25.332C79.1863 25.1974 79.0176 25.0627 78.8472 24.9297V24.7276C78.745 24.6939 78.6428 24.6603 78.5422 24.6266C78.4059 24.4582 78.2696 24.2916 78.135 24.1232H77.9306C77.8965 24.0558 77.8624 23.9885 77.8283 23.9212C77.692 23.8875 77.5557 23.8538 77.4211 23.8201C77.387 23.7528 77.353 23.6854 77.3189 23.6181H77.0139V23.5171H76.8094V23.4161H76.5045V23.315C76.1995 23.2477 75.8928 23.1804 75.5878 23.113H74.6711V23.012C74.1446 22.9817 74.177 22.7982 73.855 22.6096C73.7749 21.7139 73.7528 20.5354 73.7528 19.4865V18.0756H73.6505V17.4712C73.4461 16.7994 73.2433 16.1276 73.0389 15.4575H72.9366C72.8685 15.2555 72.8003 15.0551 72.7322 14.8531H72.6299V14.6511H72.5277C72.4936 14.5164 72.4596 14.3817 72.4255 14.2487C72.3573 14.215 72.2892 14.1813 72.221 14.1477C72.1869 14.013 72.1529 13.8783 72.1188 13.7453C72.0506 13.7116 71.9825 13.6779 71.9143 13.6443C71.8803 13.5432 71.8462 13.4422 71.8121 13.3429C71.7099 13.2755 71.6076 13.2082 71.5071 13.1408V12.9388C71.2345 12.7031 70.9636 12.4691 70.691 12.2334C70.4865 11.9977 70.2838 11.7636 70.0793 11.5279H69.8748C69.7726 11.3932 69.6704 11.2585 69.5699 11.1255H69.3654C69.3313 11.0582 69.2972 10.9908 69.2632 10.9235C69.1609 10.8898 69.0587 10.8562 68.9582 10.8225V10.7215C68.7537 10.6541 68.551 10.5868 68.3465 10.5194C68.3124 10.4521 68.2784 10.3847 68.2443 10.3174C68.0739 10.2837 67.9052 10.25 67.7348 10.2164V10.1154C67.5985 10.0817 67.4622 10.048 67.3276 10.0143V9.91332H67.0226V9.8123H66.7177V9.71128H66.4127V9.61026H66.1077V9.50924H65.5982V9.40823C65.2132 9.29037 64.3221 9.42169 64.0699 9.20619H56.222V9.10517C56.0568 8.97722 56.0874 9.04793 56.0176 8.8038H55.9154C55.9835 8.56809 56.0517 8.33407 56.1198 8.09836H56.222C56.3345 7.88622 56.4742 7.31378 56.6293 7.19256C57.0331 6.87604 57.81 6.86931 58.2598 6.58814C58.2939 6.52079 58.328 6.45345 58.3621 6.3861H58.5665C58.6688 6.25141 58.771 6.11672 58.8715 5.98371C59.0419 5.84902 59.2106 5.71433 59.381 5.58132C59.415 5.44663 59.4491 5.31194 59.4832 5.17894H59.5854C59.6195 5.04425 59.6536 4.90955 59.6876 4.77655H59.7899V4.47518H59.8921V3.87075H59.9943C59.9262 3.36735 59.858 2.86394 59.7899 2.36053H59.6876V2.05916H59.5854V1.85713C59.5173 1.82345 59.4491 1.78978 59.381 1.75611V1.55407C59.3128 1.5204 59.2446 1.48673 59.1765 1.45305V1.25102H59.0743C58.972 1.11633 58.8698 0.981635 58.7693 0.848628H58.5648C58.4967 0.74761 58.4285 0.646592 58.3604 0.547257C58.2241 0.513585 58.0877 0.479912 57.9531 0.446239V0.345221H57.7487V0.244203H57.4437V0.143185C57.0314 -0.00329113 55.8182 -0.0016075 55.4059 0.143185V0.244203H55.1009V0.345221H54.8965V0.446239C54.7602 0.479912 54.6239 0.513585 54.4893 0.547257C54.4552 0.614603 54.4211 0.681948 54.387 0.749293H54.1826C54.1485 0.816639 54.1144 0.883984 54.0803 0.95133C53.9099 1.08602 53.7413 1.22071 53.5709 1.35372V1.55575C53.5027 1.58943 53.4346 1.6231 53.3664 1.65677C53.2983 1.85881 53.2301 2.05916 53.162 2.2612H53.0597C53.0257 2.53058 52.9916 2.79828 52.9575 3.06766H52.8553C52.6951 3.61484 53.1057 4.9769 53.2625 5.28332C53.3358 5.42811 53.6407 5.79683 53.5675 6.08978H53.4652C53.4312 6.29182 53.3971 6.49217 53.363 6.69421H53.2608C53.2267 6.8289 53.1926 6.96359 53.1586 7.0966H53.0563V7.29863H52.9541V7.6H52.8519V7.80204H52.7496V8.00408C52.4855 8.49401 52.1516 8.97048 51.5263 9.11191C51.2775 9.32573 50.4307 9.21292 49.998 9.21292H28.9999C28.8244 9.01089 28.7631 9.12706 28.5927 9.01089C28.5586 8.94354 28.5246 8.8762 28.4905 8.80885C28.3201 8.67416 28.1514 8.53947 27.981 8.40646C27.8788 8.10509 27.7766 7.80204 27.6761 7.50067H27.5738V7.29863H27.4716C27.4375 7.16394 27.4034 7.02925 27.3694 6.89624H27.2671V6.59487H27.1649V6.39284H27.0627C26.8957 5.92142 27.2467 5.13011 27.3677 4.88262H27.4699C27.504 4.61323 27.538 4.34554 27.5721 4.07616H27.6744C27.8345 3.53402 27.5875 2.86899 27.4699 2.56594V2.26456H27.3677V2.06253H27.2654C27.2314 1.92784 27.1973 1.79315 27.1632 1.66014C27.0951 1.62647 27.0269 1.59279 26.9587 1.55912V1.35709C26.8906 1.32341 26.8224 1.28974 26.7543 1.25607C26.618 1.0877 26.4817 0.921024 26.3471 0.752661H26.1426C26.1085 0.685315 26.0745 0.61797 26.0404 0.550625C25.8359 0.483279 25.6332 0.415934 25.4287 0.348588V0.24757H25.1237C24.8153 0.1314 24.144 -0.10936 23.5954 0.0455343C23.0672 0.195378 22.4828 0.375527 22.067 0.649959C22.033 0.717304 21.9989 0.78465 21.9648 0.851995H21.7604C21.6922 0.953013 21.624 1.05403 21.5559 1.15337H21.4537V1.3554C21.3514 1.42275 21.2492 1.49009 21.1487 1.55744C21.1146 1.69213 21.0805 1.82682 21.0464 1.95983H20.9442C20.9101 2.09452 20.8761 2.22921 20.842 2.36222H20.7398C20.5813 2.7242 20.508 3.96167 20.6375 4.37584H20.7398V4.77823H20.842C20.8761 4.91292 20.9101 5.04761 20.9442 5.18062H21.0464V5.38266C21.1146 5.41633 21.1828 5.45 21.2509 5.48367V5.68571C21.3531 5.75306 21.4554 5.8204 21.5559 5.88775C21.6922 6.05611 21.8285 6.22279 21.9631 6.39115H22.1676C22.2016 6.4585 22.2357 6.52584 22.2698 6.59319C22.4743 6.66053 22.677 6.72788 22.8815 6.79523V6.89624C23.12 6.92992 23.3568 6.96359 23.5954 6.99726C23.6295 7.06461 23.6635 7.13195 23.6976 7.1993H23.9021C24.1406 7.66903 24.3774 8.13877 24.616 8.61018C24.5819 8.77855 24.5478 8.94523 24.5137 9.11359C22.9156 9.39476 20.7858 9.21461 19.0104 9.21461C18.3425 9.21461 17.4769 9.17588 16.9726 9.31563H15.9537V9.41664H15.4443V9.51766H15.037V9.61868H14.6298V9.7197H14.3248V9.82072H14.0198V9.92173H13.7149V10.0228C13.5786 10.0564 13.4422 10.0901 13.3076 10.1238V10.2248H13.1032V10.3258H12.8987V10.4268H12.6943L12.4898 10.6289H12.2853C12.2513 10.6962 12.2172 10.7636 12.1831 10.8309C12.0468 10.8646 11.9105 10.8982 11.7759 10.9319C11.7077 11.0329 11.6396 11.134 11.5714 11.2333H11.367C11.2988 11.3343 11.2307 11.4353 11.1625 11.5347H10.9581C10.7877 11.7367 10.619 11.937 10.4486 12.1391C10.176 12.3748 9.90509 12.6088 9.63248 12.8445V13.0466C9.49617 13.1476 9.35987 13.2486 9.22527 13.3479V13.55C9.15711 13.5836 9.08896 13.6173 9.02081 13.651V13.853C8.95265 13.8867 8.8845 13.9204 8.81635 13.954V14.1561C8.74819 14.1897 8.68004 14.2234 8.61189 14.2571C8.57781 14.3918 8.54373 14.5265 8.50966 14.6595H8.40743V14.8615H8.3052C8.23704 15.0636 8.16889 15.2639 8.10074 15.4659H7.99851C7.96443 15.668 7.93035 15.8683 7.89628 16.0704H7.79405C7.36468 17.1479 7.2846 18.4056 7.2846 19.8973C7.2846 20.6701 7.49077 22.1971 7.08014 22.6163C6.97791 22.751 6.87568 22.8857 6.77516 23.0187C6.06125 23.0861 5.34735 23.1534 4.63514 23.2208V23.3218H4.22793C2.4372 24.0104 1.18829 25.4078 0.557875 27.2497C0.523799 27.9888 0.489722 28.7262 0.455646 29.4654V33.6963C0.455646 35.5601 0.167698 38.493 0.760631 39.8399H0.862861V40.042H0.965091V40.244H1.06732V40.446L1.27178 40.6481V40.8501C1.33993 40.8838 1.40809 40.9174 1.47624 40.9511V41.1532C1.64662 41.2878 1.8153 41.4225 1.98569 41.5555V41.7576C2.08792 41.7913 2.19015 41.8249 2.29067 41.8586C2.42698 42.027 2.56329 42.1936 2.69789 42.362H2.90235C2.93642 42.4293 2.9705 42.4967 3.00458 42.564C3.5481 42.7997 4.09162 43.0338 4.63514 43.2695C5.24682 43.3032 5.8585 43.3368 6.47017 43.3705V43.4715H6.77516V43.5725C6.87739 43.6062 6.97962 43.6399 7.08014 43.6736C7.36809 45.1434 7.2846 47.2294 7.2846 49.0124V62.106H7.38683V62.4074H7.48906V62.6094C7.69352 62.8788 7.89628 63.1465 8.10074 63.4159H8.3052C8.33927 63.4832 8.37335 63.5505 8.40743 63.6179H8.61189C8.64596 63.6852 8.68004 63.7526 8.71412 63.8199H9.0191C10.3191 64.3503 11.2682 63.6819 12.0775 63.1145C12.1456 63.0135 12.2138 62.9124 12.2819 62.8131H12.4864C12.5886 62.6784 12.6909 62.5437 12.7914 62.4107H12.9958C13.0299 62.3434 13.064 62.276 13.0981 62.2087C13.2003 62.175 13.3025 62.1413 13.4031 62.1077C13.5053 61.973 13.6075 61.8383 13.708 61.7053H13.9125C13.9466 61.6379 13.9807 61.5706 14.0147 61.5032C14.117 61.4696 14.2192 61.4359 14.3197 61.4022C14.422 61.2675 14.5242 61.1328 14.6247 60.9998H14.8292C14.8973 60.8988 14.9655 60.7978 15.0336 60.6985H15.2381C15.3062 60.5974 15.3744 60.4964 15.4425 60.3971H15.647C15.7492 60.2624 15.8515 60.1277 15.952 59.9947H16.1565C16.1905 59.9274 16.2246 59.86 16.2587 59.7927C16.3609 59.759 16.4631 59.7253 16.5637 59.6917C16.6659 59.557 16.7681 59.4223 16.8687 59.2893H17.0731C17.1072 59.2219 17.1413 59.1546 17.1753 59.0872C17.2776 59.0536 17.3798 59.0199 17.4803 58.9862C17.5826 58.8515 17.6848 58.7168 17.7853 58.5838H17.9898C18.0239 58.5165 18.0579 58.4491 18.092 58.3818C18.1942 58.3481 18.2965 58.3144 18.397 58.2808C18.4992 58.1461 18.6014 58.0114 18.702 57.8784H18.9064C18.9405 57.811 18.9746 57.7437 19.0087 57.6763C19.1109 57.6427 19.2131 57.609 19.3137 57.5753C19.4159 57.4406 19.5181 57.3059 19.6186 57.1729H19.8231C19.8913 57.0719 19.9594 56.9709 20.0276 56.8716H20.232V56.7705H28.0799C28.9488 56.7705 30.1534 56.8716 30.7293 56.5685C30.7634 56.5012 30.7975 56.4338 30.8316 56.3665H31.036C31.324 56.1661 32.0634 54.9253 31.8521 54.2518H31.7499V53.9505H31.6477V53.6491C31.5795 53.6154 31.5114 53.5817 31.4432 53.5481V53.346H31.341C31.2047 53.1777 31.0684 53.011 30.9338 52.8426C30.6492 52.782 30.4465 52.612 30.2199 52.5413H22.4726C21.2901 52.5413 19.6783 52.3981 18.8025 52.7433V52.8443C18.6662 52.878 18.5299 52.9117 18.3953 52.9453V53.0463H18.0903C18.0562 53.1137 18.0221 53.181 17.9881 53.2484C17.8518 53.2821 17.7155 53.3157 17.5809 53.3494C17.5127 53.4504 17.4445 53.5514 17.3764 53.6508H17.1719C17.0697 53.7855 16.9675 53.9202 16.8669 54.0532H16.6625C16.5943 54.1542 16.5262 54.2552 16.458 54.3545H16.2536C16.1513 54.4892 16.0491 54.6239 15.9486 54.7569H15.7441C15.676 54.8579 15.6078 54.959 15.5397 55.0583H15.3352C15.233 55.193 15.1307 55.3277 15.0302 55.4607H14.8258C14.7576 55.5617 14.6895 55.6627 14.6213 55.7621H14.4168C14.3487 55.8631 14.2805 55.9641 14.2124 56.0634H14.0079C13.9057 56.1981 13.8035 56.3328 13.7029 56.4658C13.6007 56.4995 13.4985 56.5332 13.3979 56.5668C13.3639 56.6342 13.3298 56.7015 13.2957 56.7689H13.0913C12.989 56.9036 12.8868 57.0382 12.7863 57.1713H12.5818C12.5137 57.2723 12.4455 57.3733 12.3774 57.4726H12.1729C12.1388 57.54 12.1047 57.6073 12.0707 57.6747C11.9429 57.7908 11.7742 57.843 11.6634 57.976H11.5612V21.5051C11.5612 19.9242 11.4811 18.2759 11.9684 17.1748H12.0707C12.1047 17.0401 12.1388 16.9055 12.1729 16.7724H12.2751C12.3092 16.6378 12.3433 16.5031 12.3774 16.3701C12.4455 16.3364 12.5137 16.3027 12.5818 16.269V16.067C12.65 16.0333 12.7181 15.9997 12.7863 15.966V15.7639C12.9226 15.6629 13.0589 15.5619 13.1935 15.4626C13.3979 15.2269 13.6007 14.9928 13.8052 14.7571H14.0096C14.0778 14.6561 14.1459 14.5551 14.2141 14.4558C14.3504 14.4221 14.4867 14.3884 14.6213 14.3547C14.6554 14.2874 14.6895 14.2201 14.7235 14.1527C14.8939 14.119 15.0626 14.0854 15.233 14.0517V13.9507H15.4374V13.8497C15.6419 13.816 15.8447 13.7823 16.0491 13.7486V13.6476H16.5586C17.1157 13.4826 18.0767 13.5466 18.8008 13.5466H61.4068C63.264 13.5466 64.8247 13.4742 66.0957 14.05V14.151H66.3002C66.3343 14.2184 66.3684 14.2857 66.4024 14.3531C66.5387 14.3867 66.6751 14.4204 66.8097 14.4541C66.8437 14.5214 66.8778 14.5888 66.9119 14.6561H67.1163C67.2527 14.8245 67.389 14.9912 67.5236 15.1595C67.7621 15.3616 67.9989 15.5619 68.2375 15.7639V15.966C68.3397 16.0333 68.4419 16.1007 68.5424 16.168C68.5765 16.3027 68.6106 16.4374 68.6447 16.5704H68.7469V16.7724H68.8491C68.9173 16.9745 68.9855 17.1748 69.0536 17.3769H69.1558C69.1899 17.6126 69.224 17.8466 69.2581 18.0823H69.3603C69.3944 18.8214 69.4284 19.5589 69.4625 20.298V40.744C69.4625 43.8672 69.8834 48.1756 68.6464 50.1118C68.5782 50.1454 68.5101 50.1791 68.4419 50.2128V50.4148C68.3738 50.4485 68.3056 50.4822 68.2375 50.5158V50.7179C68.1012 50.8189 67.9649 50.9199 67.8303 51.0193C67.6258 51.255 67.423 51.489 67.2186 51.7247H67.0141C66.98 51.792 66.946 51.8594 66.9119 51.9267C66.3684 52.1961 65.8248 52.4638 65.2813 52.7332C64.5964 52.9756 63.5468 52.9352 62.6319 52.9352H46.0178C45.8747 52.7601 45.9139 52.9133 45.8133 52.8342C45.7452 52.7332 45.677 52.6322 45.6089 52.5328H45.5067V52.3308C45.4385 52.2971 45.3703 52.2635 45.3022 52.2298V52.0277C45.1659 51.9267 45.0296 51.8257 44.895 51.7264C44.7587 51.558 44.6224 51.3913 44.4878 51.223H44.2833C44.2151 51.122 44.147 51.0209 44.0788 50.9216C43.8744 50.8543 43.6716 50.7869 43.4672 50.7196V50.6185H43.2627V50.5175C43.0582 50.4839 42.8555 50.4502 42.651 50.4165V50.3155H42.1416V50.2145C41.4618 50.2481 40.7819 50.2818 40.1038 50.3155V50.4165C39.8993 50.4502 39.6966 50.4839 39.4921 50.5175V50.6185C39.3558 50.6522 39.2195 50.6859 39.0849 50.7196V50.8206H38.8805C38.8464 50.8879 38.8123 50.9553 38.7782 51.0226H38.5738C38.5397 51.09 38.5056 51.1573 38.4715 51.2247H38.2671C38.0967 51.4267 37.928 51.627 37.7576 51.8291C37.6554 51.8964 37.5532 51.9638 37.4526 52.0311V52.2332C37.3845 52.2668 37.3163 52.3005 37.2482 52.3342V52.5362C37.18 52.5699 37.1119 52.6036 37.0437 52.6372V52.8393H36.9415C36.9074 52.9739 36.8733 53.1086 36.8393 53.2417H36.737V53.543C36.5718 53.9521 36.2208 55.0297 36.432 55.7587C36.6365 56.3631 36.8393 56.9675 37.0437 57.572C37.1119 57.6056 37.18 57.6393 37.2482 57.673V57.875C37.3504 57.9424 37.4526 58.0097 37.5532 58.077V58.2791C37.6213 58.3128 37.6895 58.3464 37.7576 58.3801C37.8939 58.5485 38.0302 58.7151 38.1648 58.8835H38.3693C38.4375 58.9845 38.5056 59.0855 38.5738 59.1849C39.2366 59.6226 40.8756 60.19 41.9371 59.8903H42.5488V59.7893H42.8538V59.6883H43.1588V59.5873H43.3632V59.4863H43.5677V59.3852H43.7722L43.9766 59.1832H44.1811C44.2492 59.0822 44.3174 58.9812 44.3855 58.8818H44.59C44.6241 58.8145 44.6581 58.7471 44.6922 58.6798C44.8626 58.5451 45.0313 58.4104 45.2017 58.2774V58.0754C45.3039 58.008 45.4061 57.9407 45.5067 57.8733C45.7094 57.5922 45.6242 57.481 46.0161 57.3699C46.2649 57.1561 47.1117 57.2689 47.5444 57.2689H60.9996C63.1532 57.2689 65.2012 57.2571 66.7074 56.6645H67.0124C70.357 55.2401 72.3335 53.0632 73.5364 49.5141V49.0107C73.809 48.1268 73.7408 46.7597 73.7408 45.5862C73.7408 44.9885 73.6437 44.1837 73.9453 43.8739C74.4122 43.1011 75.6253 43.5052 76.4942 43.1685V43.0674H76.7992V42.9664C77.0037 42.8991 77.2064 42.8317 77.4109 42.7644V42.6634C77.5472 42.6297 77.6835 42.596 77.8181 42.5624C77.8863 42.4613 77.9544 42.3603 78.0226 42.261H78.227C78.4315 42.0253 78.6342 41.7913 78.8387 41.5555C78.975 41.4545 79.1113 41.3535 79.2459 41.2542V41.0521C79.3482 40.9848 79.4504 40.9174 79.5509 40.8501C79.585 40.7154 79.6191 40.5807 79.6531 40.4477H79.7554C79.8235 40.2457 79.8917 40.0453 79.9598 39.8433H80.0621C80.4931 38.8668 80.367 37.1899 80.367 35.8144L80.379 35.8076ZM32.6751 29.8644H32.5729C32.5047 29.6623 32.4366 29.462 32.3684 29.26H32.2662C32.2321 29.1253 32.198 28.9906 32.1639 28.8576C32.0958 28.8239 32.0276 28.7902 31.9595 28.7566V28.5545C31.8232 28.4535 31.6869 28.3525 31.5523 28.2531V28.0511C31.4841 28.0174 31.416 27.9838 31.3478 27.9501C31.2115 27.7817 31.0752 27.615 30.9406 27.4467H30.7361C30.668 27.3457 30.5998 27.2446 30.5317 27.1453C29.5469 26.4668 28.1054 25.9331 26.4544 25.9365V26.0375H25.6383V26.1385H25.1288V26.2395H24.8238V26.3405H24.5189V26.4416H24.3144V26.5426C24.144 26.5762 23.9753 26.6099 23.805 26.6436C23.7709 26.7109 23.7368 26.7783 23.7027 26.8456C23.5664 26.8793 23.4301 26.913 23.2955 26.9466C23.2614 27.014 23.2274 27.0813 23.1933 27.1487H22.9888C22.7162 27.4501 22.4453 27.7531 22.1727 28.0545C22.0023 28.1892 21.8336 28.3239 21.6632 28.4569V28.6589C21.5951 28.6926 21.5269 28.7262 21.4588 28.7599C21.4247 28.8946 21.3906 29.0293 21.3565 29.1623C21.2884 29.196 21.2202 29.2297 21.1521 29.2633V29.4654H21.0499V29.7667H20.9476V29.9688H20.8454V30.2701H20.7432V30.5715H20.6409V30.9739H20.5387V31.7804H20.4365C20.4706 32.3174 20.5046 32.8545 20.5387 33.3916H20.6409C20.675 33.661 20.7091 33.9287 20.7432 34.1981H20.8454V34.4001H20.9476V34.7015H21.0499C21.0839 34.8362 21.118 34.9708 21.1521 35.1039H21.2543V35.3059C21.3225 35.3396 21.3906 35.3732 21.4588 35.4069C21.4929 35.5416 21.5269 35.6763 21.561 35.8093C21.6973 35.9103 21.8336 36.0113 21.9682 36.1107V36.3127C22.1727 36.4811 22.3754 36.6477 22.5799 36.8161C22.614 36.8835 22.6481 36.9508 22.6821 37.0181H22.8866C22.9547 37.1192 23.0229 37.2202 23.091 37.3195H23.2955C23.3296 37.3869 23.3637 37.4542 23.3977 37.5216C23.6022 37.5889 23.805 37.6562 24.0094 37.7236V37.8246C24.1457 37.8583 24.282 37.892 24.4166 37.9256V38.0266H24.7216V38.1277C25.1305 38.2876 26.9196 38.6125 27.5755 38.429V38.328H28.1872V38.227H28.5944V38.126H28.8994V38.025C29.0698 37.9913 29.2385 37.9576 29.4089 37.9239V37.8229H29.6133V37.7219H29.8178C29.8518 37.6546 29.8859 37.5872 29.92 37.5199C30.0563 37.4862 30.1926 37.4525 30.3272 37.4189C30.3954 37.3178 30.4635 37.2168 30.5317 37.1175H30.7361C30.9065 36.9154 31.0752 36.7151 31.2456 36.5131C31.416 36.3784 31.5846 36.2437 31.755 36.1107V35.9086C31.8573 35.8413 31.9595 35.7739 32.06 35.7066C32.0941 35.5719 32.1282 35.4372 32.1622 35.3042C32.2304 35.2705 32.2986 35.2369 32.3667 35.2032V35.0012H32.4689V34.7991H32.5712V34.4977H32.6734V34.2957H32.7756V33.8933H32.8779V33.592H32.9801V32.9875H33.0823C33.326 32.1575 32.8642 30.6389 32.6751 30.1674V29.8661V29.8644ZM27.5789 35.2032H26.0506C25.0181 34.9018 24.19 34.1257 23.8084 33.1896V32.7872C23.7419 32.5835 23.5937 31.9336 23.7061 31.5783H23.8084C23.8424 31.3763 23.8765 31.1759 23.9106 30.9739H24.0128V30.7719H24.115V30.5698C24.1832 30.5362 24.2514 30.5025 24.3195 30.4688V30.2668C24.4558 30.1658 24.5921 30.0647 24.7267 29.9654C24.7608 29.8981 24.7949 29.8307 24.829 29.7634H25.0334C25.0675 29.696 25.1016 29.6287 25.1356 29.5613H25.3401V29.4603H25.5446V29.3593C25.749 29.3256 25.9518 29.2919 26.1562 29.2583V29.1573C27.9555 29.1236 28.6046 29.5243 29.3168 30.5681C29.385 30.6018 29.4532 30.6355 29.5213 30.6692V30.8712H29.6235V31.1726C30.4312 33.1475 29.0016 34.7419 27.5858 35.2015L27.5789 35.2032ZM58.4643 27.6487C58.328 27.4804 58.1917 27.3137 58.0571 27.1453H57.8526C57.8185 27.078 57.7845 27.0106 57.7504 26.9433C56.8865 26.3961 55.3769 25.9331 53.9798 25.9365C53.7634 26.12 53.3988 25.9365 53.0631 26.0375V26.1385H52.6559V26.2395H52.3509V26.3405H52.046V26.4416H51.741V26.5426C51.6047 26.5762 51.4684 26.6099 51.3338 26.6436V26.7446H51.1293C51.0952 26.812 51.0611 26.8793 51.0271 26.9466H50.8226C50.7885 27.014 50.7545 27.0813 50.7204 27.1487H50.5159C50.4137 27.2834 50.3115 27.4181 50.2109 27.5511H50.0065V27.6521C49.8702 27.7531 49.7339 27.8541 49.5993 27.9535V28.1555C49.4629 28.2565 49.3266 28.3575 49.192 28.4569V28.6589C49.1239 28.6926 49.0557 28.7262 48.9876 28.7599V28.962C48.9194 28.9956 48.8513 29.0293 48.7831 29.063C48.749 29.1977 48.715 29.3324 48.6809 29.4654H48.5787C48.5446 29.6001 48.5105 29.7347 48.4764 29.8678H48.3742V30.1691H48.272V30.4705H48.1697V30.8729H48.0675V31.5783H47.9653V32.8882H48.0675V33.4926H48.1697V33.895H48.272C48.306 34.097 48.3401 34.2974 48.3742 34.4994H48.4764C48.5446 34.7015 48.6127 34.9018 48.6809 35.1039H48.7831C48.8172 35.2385 48.8513 35.3732 48.8853 35.5062H48.9876C49.0217 35.6073 49.0557 35.7083 49.0898 35.8076C49.158 35.8413 49.2261 35.875 49.2943 35.9086V36.1107C49.4987 36.279 49.7015 36.4457 49.9059 36.6141C50.0422 36.7824 50.1786 36.9491 50.3132 37.1175H50.5176C50.5517 37.1848 50.5858 37.2522 50.6198 37.3195H50.8243C50.8584 37.3869 50.8925 37.4542 50.9265 37.5216H51.131C51.1651 37.5889 51.1992 37.6562 51.2332 37.7236H51.4377V37.8246H51.7427V37.9256C51.879 37.9593 52.0153 37.993 52.1499 38.0266V38.1277C52.5452 38.2842 54.4739 38.6092 55.106 38.429C55.7859 38.227 56.4657 38.0266 57.1438 37.8246C57.1779 37.7573 57.212 37.6899 57.2461 37.6226C57.3824 37.5889 57.5187 37.5552 57.6533 37.5216C57.6873 37.4542 57.7214 37.3869 57.7555 37.3195H57.96C58.0281 37.2185 58.0963 37.1175 58.1644 37.0181H58.3689C58.437 36.9171 58.5052 36.8161 58.5733 36.7168C58.7778 36.5484 58.9806 36.3817 59.185 36.2134V36.0113C59.2872 35.944 59.3895 35.8766 59.49 35.8093V35.6073C59.5581 35.5736 59.6263 35.5399 59.6945 35.5062V35.3042L59.8989 35.1022V34.9001H60.0011V34.6981H60.1034V34.4961H60.2056V34.1947C60.5856 33.2586 60.7611 32.075 60.4101 30.9722V30.5698H60.3078V30.1674H60.2056V29.9654H60.1034C60.0011 29.664 59.8989 29.361 59.7984 29.0596C59.7302 29.0259 59.6621 28.9923 59.5939 28.9586V28.7566C59.5258 28.7229 59.4576 28.6892 59.3895 28.6555V28.4535C59.2532 28.3525 59.1169 28.2515 58.9823 28.1521V27.9501C58.88 27.8827 58.7778 27.8154 58.6773 27.7481V27.647H58.4728L58.4643 27.6487ZM55.1009 35.2032H53.4704V35.1022H53.1654V35.0012C52.9609 34.9338 52.7582 34.8665 52.5537 34.7991C52.5196 34.7318 52.4855 34.6644 52.4515 34.5971C52.1789 34.3614 51.9079 34.1273 51.6353 33.8916C51.6013 33.7569 51.5672 33.6223 51.5331 33.4893H51.4309C51.3968 33.2872 51.3627 33.0869 51.3286 32.8848C51.2435 32.6491 51.1037 31.8629 51.2264 31.4739H51.3286V31.1726H51.4309C51.499 30.9705 51.5672 30.7702 51.6353 30.5681H51.7376V30.3661C51.9079 30.2314 52.0766 30.0967 52.247 29.9637C52.2811 29.8964 52.3152 29.829 52.3492 29.7617H52.5537C52.5878 29.6943 52.6219 29.627 52.6559 29.5596H52.8604V29.4586C52.9967 29.425 53.133 29.3913 53.2676 29.3576V29.2566H53.6748V29.1556C55.3821 29.1236 56.0551 29.4755 56.7332 30.4654C56.8013 30.4991 56.8695 30.5328 56.9377 30.5665V30.7685H57.0399C57.074 30.9032 57.108 31.0379 57.1421 31.1709H57.2443V31.5733C57.8271 33.3377 56.2868 34.816 55.1043 35.1998L55.1009 35.2032Z" fill="#353535"/>
</g>
<defs>
<clipPath id="clip0_242_625">
<rect width="80" height="64" fill="white" transform="translate(0.395508)"/>
</clipPath>
</defs>
</svg>
