<svg width="1356" height="518" viewBox="0 0 1356 518" fill="none" xmlns="http://www.w3.org/2000/svg">
<line y1="512.017" x2="1356" y2="512.017" stroke="#6CBB65" stroke-opacity="0.3" stroke-width="10"/>
<line y1="500.267" x2="1356" y2="500.267" stroke="#6CBB65" stroke-opacity="0.3" stroke-width="10"/>
<line y1="488.516" x2="1356" y2="488.516" stroke="#6CBB65" stroke-opacity="0.3" stroke-width="10"/>
<line y1="453.264" x2="1356" y2="453.264" stroke="#6CBB65" stroke-opacity="0.3" stroke-width="10"/>
<line y1="441.515" x2="1356" y2="441.515" stroke="#6CBB65" stroke-opacity="0.3" stroke-width="10"/>
<line y1="429.764" x2="1356" y2="429.764" stroke="#6CBB65" stroke-opacity="0.3" stroke-width="10"/>
<line y1="418.014" x2="1356" y2="418.014" stroke="#6CBB65" stroke-opacity="0.3" stroke-width="10"/>
<line y1="382.763" x2="1356" y2="382.763" stroke="#6CBB65" stroke-opacity="0.3" stroke-width="10"/>
<line y1="371.012" x2="1356" y2="371.012" stroke="#6CBB65" stroke-opacity="0.3" stroke-width="10"/>
<line y1="335.762" x2="1356" y2="335.762" stroke="#6CBB65" stroke-opacity="0.3" stroke-width="10"/>
<line y1="324.011" x2="1356" y2="324.011" stroke="#6CBB65" stroke-opacity="0.3" stroke-width="10"/>
<line y1="312.26" x2="1356" y2="312.26" stroke="#6CBB65" stroke-opacity="0.3" stroke-width="10"/>
<line y1="300.51" x2="1356" y2="300.51" stroke="#6CBB65" stroke-opacity="0.3" stroke-width="10"/>
<line y1="288.759" x2="1356" y2="288.759" stroke="#6CBB65" stroke-opacity="0.3" stroke-width="10"/>
<line y1="277.009" x2="1356" y2="277.009" stroke="#6CBB65" stroke-opacity="0.3" stroke-width="10"/>
<line y1="265.258" x2="1356" y2="265.258" stroke="#6CBB65" stroke-opacity="0.3" stroke-width="10"/>
<line y1="253.508" x2="1356" y2="253.508" stroke="#6CBB65" stroke-opacity="0.3" stroke-width="10"/>
<line y1="241.758" x2="1356" y2="241.758" stroke="#6CBB65" stroke-opacity="0.3" stroke-width="10"/>
<line y1="218.257" x2="1356" y2="218.257" stroke="#6CBB65" stroke-opacity="0.3" stroke-width="10"/>
<line y1="206.507" x2="1356" y2="206.507" stroke="#6CBB65" stroke-opacity="0.3" stroke-width="10"/>
<line y1="183.006" x2="1356" y2="183.006" stroke="#6CBB65" stroke-opacity="0.3" stroke-width="10"/>
<line y1="136.005" x2="1356" y2="136.005" stroke="#6CBB65" stroke-opacity="0.3" stroke-width="10"/>
<line y1="124.254" x2="1356" y2="124.254" stroke="#6CBB65" stroke-opacity="0.3" stroke-width="10"/>
<line y1="100.753" x2="1356" y2="100.753" stroke="#6CBB65" stroke-opacity="0.3" stroke-width="10"/>
<line y1="65.502" x2="1356" y2="65.502" stroke="#6CBB65" stroke-opacity="0.3" stroke-width="10"/>
<line y1="159.506" x2="1356" y2="159.506" stroke="#6CBB65" stroke-opacity="0.3" stroke-width="10"/>
<line y1="406.264" x2="1356" y2="406.264" stroke="#6CBB65" stroke-opacity="0.3" stroke-width="10"/>
<line y1="53.7515" x2="1356" y2="53.7515" stroke="#6CBB65" stroke-opacity="0.3" stroke-width="10"/>
<line y1="77.2524" x2="1356" y2="77.2524" stroke="#6CBB65" stroke-opacity="0.3" stroke-width="10"/>
<line y1="194.757" x2="1356" y2="194.757" stroke="#6CBB65" stroke-opacity="0.3" stroke-width="10"/>
<line y1="394.513" x2="1356" y2="394.513" stroke="#6CBB65" stroke-opacity="0.3" stroke-width="10"/>
<line y1="42.0015" x2="1356" y2="42.0015" stroke="#6CBB65" stroke-opacity="0.3" stroke-width="10"/>
<line y1="359.262" x2="1356" y2="359.262" stroke="#6CBB65" stroke-opacity="0.3" stroke-width="10"/>
<line y1="6.75" x2="1356" y2="6.75" stroke="#6CBB65" stroke-opacity="0.3" stroke-width="10"/>
<line y1="112.504" x2="1356" y2="112.504" stroke="#6CBB65" stroke-opacity="0.3" stroke-width="10"/>
<line y1="230.007" x2="1356" y2="230.007" stroke="#6CBB65" stroke-opacity="0.3" stroke-width="10"/>
<line y1="476.765" x2="1356" y2="476.765" stroke="#6CBB65" stroke-opacity="0.3" stroke-width="10"/>
<line y1="30.2505" x2="1356" y2="30.2505" stroke="#6CBB65" stroke-opacity="0.3" stroke-width="10"/>
<line y1="171.256" x2="1356" y2="171.256" stroke="#6CBB65" stroke-opacity="0.3" stroke-width="10"/>
<line y1="465.015" x2="1356" y2="465.015" stroke="#6CBB65" stroke-opacity="0.3" stroke-width="10"/>
<line y1="18.501" x2="1356" y2="18.501" stroke="#6CBB65" stroke-opacity="0.3" stroke-width="10"/>
<line y1="89.0029" x2="1356" y2="89.0029" stroke="#6CBB65" stroke-opacity="0.3" stroke-width="10"/>
<line y1="147.755" x2="1356" y2="147.755" stroke="#6CBB65" stroke-opacity="0.3" stroke-width="10"/>
<line y1="347.512" x2="1356" y2="347.512" stroke="#6CBB65" stroke-opacity="0.3" stroke-width="10"/>
</svg>
