<svg width="92" height="35" viewBox="0 0 92 35" fill="none" xmlns="http://www.w3.org/2000/svg">
<path d="M27.8481 17.502L26.5127 18.8465L29.9934 22.3464L31.3288 21.0039L33.4747 18.8465L34.8101 17.5041L27.8481 17.502Z" fill="#004324"/>
<path d="M17.4055 0L10.4414 7.00112H17.4006H24.3627L24.3676 6.99622L20.8869 3.49986L17.4055 0Z" fill="#009844"/>
<path d="M0 17.4974L3.48136 20.9966L13.922 10.5005L10.4434 7.00342L0 17.4974Z" fill="#6CBB65"/>
<path d="M15.26 23.1588L11.7794 19.6597L10.4426 21.0022L8.29661 23.1588L6.96191 24.5013H13.9274L15.26 23.1588Z" fill="#6CBB65"/>
<path d="M13.9238 17.4993H20.8845L24.3693 14.0029V7.00391L13.9238 17.4993Z" fill="#009844"/>
<path d="M24.3672 14.0029L27.8486 17.4993H34.8106L31.3292 14.0029L27.8486 10.5031L24.3672 7.00391V14.0029Z" fill="#004324"/>
<path d="M13.9274 24.502H6.96191L10.4426 28.0011L13.9274 31.501L17.4081 35.0001V28.0011L13.9274 24.502Z" fill="#009844"/>
<path d="M24.3693 21.0021L20.8845 17.5029H13.9238L17.4045 21.0021L20.8845 24.5012L17.4031 28.0011V35.0001L20.8845 31.5003L24.3693 28.0011L27.85 24.5012L24.3693 21.0021Z" fill="#004324"/>
<path d="M42.2914 12.1907L39.9036 14.2549L38.7188 12.7513L42.5347 9.61084H44.521V25.2702H42.2907L42.2914 12.1907Z" fill="#231815"/>
<path d="M50.5005 21.8028C50.8386 22.3268 51.3179 22.7433 51.8826 23.0037C52.426 23.2577 53.018 23.3897 53.6173 23.3905C53.9623 23.3885 54.3052 23.3356 54.6349 23.2335C54.9743 23.1326 55.294 22.9738 55.58 22.7641C55.862 22.5575 56.0992 22.2953 56.2769 21.9934C56.4612 21.6695 56.5545 21.3014 56.5467 20.9283C56.5624 20.6837 56.5219 20.4386 56.4282 20.2123C56.3345 19.9859 56.1902 19.7842 56.0065 19.623C55.6041 19.2995 55.1512 19.0452 54.6662 18.8705C54.1328 18.6687 53.552 18.4736 52.9238 18.2854C52.3105 18.1046 51.7243 17.8411 51.1814 17.502C50.6399 17.1596 50.1818 16.6991 49.8411 16.1547C49.4479 15.4594 49.2605 14.6657 49.301 13.867C49.3235 12.8445 49.7407 11.8708 50.4642 11.1518C50.9112 10.7179 51.4366 10.374 52.0122 10.1387C52.7353 9.84967 53.5092 9.71095 54.2871 9.73089C55.068 9.72793 55.8451 9.84054 56.5934 10.0651C57.3592 10.3108 58.0329 10.7843 58.5254 11.423L56.9042 12.9056C56.6408 12.5029 56.275 12.1782 55.8448 11.9653C55.3615 11.7222 54.8268 11.6003 54.2864 11.6101C53.8163 11.5962 53.3478 11.6708 52.905 11.8301C52.5743 11.9516 52.2732 12.1427 52.0219 12.3906C51.8132 12.5996 51.6537 12.8529 51.555 13.1319C51.4701 13.3664 51.4244 13.6133 51.4198 13.8627C51.4024 14.1279 51.4416 14.3937 51.5348 14.6424C51.628 14.8911 51.7729 15.1169 51.9599 15.3047C52.3518 15.6584 52.8065 15.9346 53.3002 16.1189C53.87 16.3386 54.4518 16.5257 55.0426 16.6795C55.6504 16.8384 56.2358 17.0739 56.785 17.3801C57.3164 17.6777 57.7742 18.0918 58.1246 18.5916C58.518 19.2186 58.7071 19.9534 58.6655 20.6936C58.6753 21.3565 58.5367 22.0131 58.2598 22.6149C58.0031 23.1683 57.6311 23.6598 57.1691 24.0561C56.691 24.4574 56.1406 24.7623 55.5479 24.9544C54.9041 25.1662 54.2305 25.2717 53.5532 25.2669C52.6364 25.2718 51.7271 25.1018 50.8733 24.7659C50.0655 24.4604 49.3648 23.9229 48.8584 23.2202L50.5005 21.8028Z" fill="#231815"/>
<path d="M65.38 14.5737H63.1211V25.2961H65.38V14.5737Z" fill="#231815"/>
<path d="M91.6903 16.9336C91.5059 16.4571 91.2205 16.0268 90.854 15.6724C90.5029 15.3431 90.0848 15.0944 89.6287 14.9437C89.1635 14.789 88.6766 14.7107 88.1866 14.7117C87.4409 14.6973 86.7042 14.8774 86.0483 15.2344C85.6166 15.4671 85.245 15.7979 84.9632 16.2007V14.9689H82.7559V25.4173H84.9653V20.0432C84.9556 19.5434 85.025 19.0454 85.1709 18.5675C85.286 18.1948 85.4789 17.851 85.7368 17.5593C85.9669 17.3047 86.2535 17.1081 86.5732 16.9854C87.1752 16.7588 87.8353 16.7408 88.4487 16.9343C88.7037 17.0197 88.9363 17.162 89.129 17.3505C89.3412 17.5665 89.5041 17.8264 89.6064 18.1121C89.7355 18.4843 89.7971 18.8769 89.7883 19.271V25.4166H91.9956V18.735C92.0083 18.1204 91.9035 17.5091 91.6868 16.9343" fill="#231815"/>
<path d="M76.85 14.8539V15.5713C76.585 15.333 76.2856 15.1365 75.962 14.9884C75.3901 14.7315 74.7717 14.5954 74.1453 14.5886C73.5188 14.5819 72.8977 14.7046 72.3204 14.9491C71.7753 15.1805 71.2849 15.5247 70.8811 15.9595C70.4811 16.3968 70.1702 16.9085 69.966 17.466C69.75 18.053 69.6412 18.6744 69.6447 19.3003C69.6395 19.9238 69.7543 20.5424 69.9827 21.1221C70.1965 21.669 70.5186 22.1665 70.9296 22.5843C71.3406 23.0022 71.8318 23.3317 72.3733 23.5527C72.9426 23.7898 73.5538 23.9085 74.17 23.9016C74.7862 23.8948 75.3946 23.7625 75.9585 23.5128C76.2887 23.3612 76.5894 23.1517 76.8465 22.8941V23.3649C76.8461 23.6963 76.8021 24.0262 76.7155 24.3459C76.6355 24.6473 76.4898 24.9271 76.2889 25.165C76.0626 25.4213 75.7811 25.6223 75.4658 25.7528C75.0365 25.922 74.5773 26.0011 74.1165 25.9854C73.5932 25.9948 73.0746 25.8864 72.5985 25.668C72.1231 25.4334 71.6971 25.1089 71.3439 24.7123L71.1167 24.4643L69.6621 26.286L69.8601 26.4696C70.4328 27.0183 71.1148 27.4386 71.8611 27.7028C72.6003 27.9435 73.3736 28.0618 74.1506 28.0531C74.8232 28.0606 75.4916 27.9459 76.1237 27.7147C76.6984 27.5043 77.2244 27.1784 77.6696 26.7569C78.0987 26.3434 78.4372 25.8444 78.6635 25.2918C78.9005 24.7016 79.0189 24.07 79.012 23.4336V14.8539H76.85Z" fill="#231815"/>
<path d="M74.3843 16.6595C74.03 16.6542 73.6782 16.7216 73.3507 16.8578C73.0609 16.98 72.7997 17.1618 72.584 17.3917C72.3678 17.6305 72.2019 17.9107 72.0962 18.2157C71.9759 18.5636 71.9162 18.9298 71.9198 19.2982C71.9013 19.635 71.9502 19.9721 72.0636 20.2896C72.1769 20.6071 72.3525 20.8985 72.5799 21.1466C73.0791 21.5871 73.7207 21.8301 74.385 21.8301C75.0493 21.8301 75.6909 21.5871 76.1902 21.1466C76.4175 20.8985 76.5931 20.6071 76.7065 20.2896C76.8198 19.9721 76.8687 19.635 76.8502 19.2982C76.8537 18.9297 76.7936 18.5634 76.6725 18.2157C76.5669 17.9107 76.4009 17.6304 76.1846 17.3917C75.9687 17.1621 75.7076 16.9802 75.4179 16.8578C75.0904 16.7217 74.7387 16.6543 74.3843 16.6595Z" fill="#F3EAE4"/>
</svg>
