<svg width="273" height="98" viewBox="0 0 273 98" fill="none" xmlns="http://www.w3.org/2000/svg">
<path d="M18.9247 13.6234L6.71942 24.5236L0.663086 16.5834L20.168 0H30.3213V82.6911H18.9211L18.9247 13.6234Z" fill="#F9F5EE"/>
<path d="M60.8855 64.3811C62.6137 67.148 65.0638 69.3474 67.9501 70.7228C70.728 72.0642 73.7538 72.7611 76.8172 72.7652C78.5807 72.7547 80.3332 72.4755 82.0186 71.9364C83.7536 71.4033 85.3876 70.5648 86.8494 69.4575C88.2912 68.3667 89.5035 66.9818 90.4119 65.3874C91.3539 63.6772 91.8305 61.7333 91.7906 59.7635C91.8711 58.4715 91.6639 57.1776 91.1851 55.9822C90.7063 54.7867 89.9687 53.7219 89.0297 52.8704C86.9728 51.1624 84.6579 49.8196 82.1789 48.8966C79.4524 47.831 76.4836 46.8012 73.2725 45.8071C70.1374 44.8526 67.1413 43.461 64.3662 41.6705C61.598 39.862 59.2567 37.4304 57.5154 34.5555C55.5056 30.8841 54.5477 26.6928 54.7544 22.475C54.8698 17.0756 57.002 11.9342 60.7003 8.13754C62.9848 5.84599 65.6706 4.02991 68.6127 2.78735C72.3089 1.26121 76.2645 0.528672 80.2409 0.633957C84.2324 0.618359 88.2045 1.21302 92.0293 2.39884C95.9438 3.6963 99.3873 6.1966 101.905 9.56944L93.6182 17.3986C92.2716 15.2718 90.4021 13.5574 88.2032 12.4332C85.7325 11.1495 82.9994 10.5059 80.2373 10.5573C77.8345 10.4838 75.4396 10.8778 73.1763 11.7191C71.4859 12.3605 69.9469 13.3697 68.6626 14.6791C67.5958 15.7828 66.7803 17.1203 66.2757 18.5937C65.8419 19.8316 65.6084 21.1356 65.5845 22.4528C65.4959 23.853 65.6964 25.2568 66.1726 26.57C66.6487 27.8833 67.3896 29.0757 68.3455 30.0674C70.3488 31.9347 72.6729 33.3933 75.1963 34.3667C78.1091 35.5267 81.0826 36.515 84.1027 37.3267C87.2094 38.1663 90.2018 39.4094 93.009 41.0267C95.7249 42.5982 98.0652 44.7847 99.8562 47.424C101.867 50.7353 102.833 54.6154 102.621 58.524C102.671 62.0245 101.963 65.492 100.547 68.6694C99.235 71.5917 97.3337 74.1871 94.972 76.2802C92.5285 78.3989 89.7151 80.0094 86.6855 81.0236C83.3949 82.1418 79.9517 82.6991 76.4895 82.6738C71.8035 82.6996 67.1553 81.8019 62.7915 80.0283C58.6622 78.4151 55.0806 75.5767 52.4922 71.8661L60.8855 64.3811Z" fill="#F9F5EE"/>
<path d="M136.94 26.207H125.394V82.828H136.94V26.207Z" fill="#F9F5EE"/>
<path d="M271.427 38.6686C270.484 36.1527 269.025 33.8801 267.152 32.0086C265.358 30.2697 263.221 28.9567 260.889 28.1606C258.511 27.344 256.022 26.9304 253.518 26.9359C249.706 26.8597 245.941 27.8107 242.588 29.6961C240.382 30.9244 238.482 32.6717 237.041 34.7984V28.2938H225.759V83.468H237.052V55.0891C237.003 52.4503 237.357 49.8201 238.103 47.2969C238.691 45.3285 239.678 43.5132 240.996 41.9726C242.172 40.6282 243.637 39.5901 245.271 38.9423C248.348 37.7456 251.722 37.6506 254.858 38.6722C256.161 39.1234 257.35 39.8748 258.335 40.8701C259.42 42.0109 260.252 43.3833 260.775 44.8919C261.435 46.8576 261.75 48.9304 261.705 51.0117V83.4643H272.987V48.1812C273.052 44.9359 272.517 41.7077 271.409 38.6722" fill="#F9F5EE"/>
<path d="M195.567 27.6865V31.4753C194.212 30.2169 192.682 29.1791 191.028 28.3969C188.105 27.0402 184.944 26.3217 181.742 26.2861C178.54 26.2504 175.365 26.8984 172.414 28.1897C169.628 29.4112 167.121 31.2292 165.057 33.5251C163.013 35.834 161.423 38.5366 160.38 41.4801C159.276 44.5801 158.719 47.8615 158.737 51.1667C158.71 54.4591 159.297 57.7257 160.465 60.7866C161.558 63.6747 163.204 66.3018 165.305 68.5083C167.406 70.7149 169.916 72.4547 172.685 73.6219C175.595 74.8739 178.719 75.5007 181.868 75.4645C185.018 75.4282 188.128 74.7297 191.01 73.411C192.698 72.6104 194.235 71.5041 195.549 70.1439V72.6303C195.547 74.3801 195.322 76.122 194.879 77.8103C194.471 79.4023 193.726 80.8797 192.699 82.1356C191.542 83.4892 190.103 84.5509 188.492 85.2399C186.297 86.133 183.95 86.5511 181.595 86.4683C178.92 86.5179 176.269 85.9452 173.835 84.7922C171.405 83.5534 169.228 81.8399 167.423 79.7454L166.261 78.4356L158.826 88.0556L159.838 89.025C162.766 91.9224 166.252 94.1419 170.066 95.537C173.845 96.808 177.797 97.4328 181.769 97.387C185.207 97.4263 188.624 96.8209 191.855 95.5999C194.792 94.4886 197.48 92.7676 199.756 90.542C201.95 88.3584 203.68 85.7233 204.837 82.8053C206.048 79.6886 206.653 76.3537 206.618 72.9929V27.6865H195.567Z" fill="#F9F5EE"/>
<path d="M182.966 37.2212C181.155 37.1933 179.357 37.5496 177.683 38.2683C176.202 38.9136 174.867 39.874 173.764 41.0877C172.659 42.3488 171.811 43.8288 171.27 45.4389C170.656 47.2763 170.351 49.2102 170.369 51.1554C170.275 52.9339 170.524 54.7141 171.104 56.3907C171.683 58.0672 172.581 59.606 173.743 60.916C176.295 63.2424 179.574 64.5253 182.97 64.5253C186.365 64.5253 189.645 63.2424 192.197 60.916C193.359 59.606 194.256 58.0672 194.836 56.3907C195.415 54.7141 195.665 52.9339 195.571 51.1554C195.588 49.2096 195.281 47.2755 194.662 45.4389C194.122 43.8284 193.274 42.3483 192.168 41.0877C191.065 39.8753 189.73 38.915 188.25 38.2683C186.575 37.5501 184.778 37.1939 182.966 37.2212Z" fill="#009844"/>
</svg>
