<svg width="128" height="102" viewBox="0 0 128 102" fill="none" xmlns="http://www.w3.org/2000/svg">
<g clip-path="url(#clip0_144_1092)">
<path fill-rule="evenodd" clip-rule="evenodd" d="M127.773 57.0032V44.3365H127.61C127.501 43.696 127.393 43.0527 127.284 42.4121H127.122C127.013 42.0905 126.905 41.7716 126.796 41.4499H126.633C126.579 41.2355 126.525 41.0211 126.471 40.8094C126.362 40.7558 126.254 40.7022 126.145 40.6486V40.3269C125.874 40.1125 125.605 39.8981 125.334 39.6864V39.3647C125.171 39.3111 125.009 39.2575 124.849 39.2039C124.632 38.9359 124.415 38.6706 124.2 38.4025H123.875C123.821 38.2953 123.766 38.1881 123.712 38.0809C123.495 38.0273 123.278 37.9737 123.064 37.9201C123.01 37.8129 122.955 37.7057 122.901 37.5985H122.416V37.4377H122.09V37.2768H121.605V37.116C121.119 37.0088 120.631 36.9016 120.145 36.7944H118.686V36.6336C117.848 36.5854 117.9 36.2932 117.387 35.993C117.259 34.5672 117.224 32.691 117.224 31.0212V28.7752H117.061V27.813C116.736 26.7436 116.413 25.6742 116.088 24.6075H115.925C115.816 24.2859 115.708 23.9669 115.599 23.6453H115.437V23.3237H115.274C115.22 23.1092 115.166 22.8948 115.111 22.6831C115.003 22.6295 114.894 22.5759 114.786 22.5223C114.732 22.3079 114.677 22.0934 114.623 21.8817C114.515 21.8281 114.406 21.7745 114.298 21.7209C114.243 21.5601 114.189 21.3993 114.135 21.2411C113.972 21.1339 113.809 21.0267 113.649 20.9195V20.5979C113.215 20.2227 112.784 19.8501 112.35 19.4749C112.025 19.0996 111.702 18.7271 111.376 18.3519H111.051C110.888 18.1374 110.725 17.923 110.565 17.7113H110.24C110.186 17.6041 110.131 17.4969 110.077 17.3897C109.914 17.3361 109.752 17.2825 109.592 17.2289V17.068C109.266 16.9608 108.943 16.8536 108.618 16.7464C108.564 16.6392 108.509 16.532 108.455 16.4248C108.184 16.3712 107.915 16.3176 107.644 16.264V16.1032C107.427 16.0496 107.21 15.996 106.996 15.9424V15.7815H106.51V15.6207H106.025V15.4599H105.539V15.2991H105.054V15.1383H104.243V14.9775C103.63 14.7899 102.211 14.9989 101.81 14.6559H89.3167V14.495C89.0536 14.2913 89.1024 14.4039 88.9912 14.0153H88.8284C88.9369 13.6401 89.0454 13.2675 89.1539 12.8923H89.3167C89.4957 12.5546 89.7181 11.6433 89.9649 11.4503C90.6078 10.9464 91.8446 10.9357 92.5607 10.4881C92.6149 10.3809 92.6692 10.2737 92.7234 10.1665H93.0489C93.2116 9.95208 93.3744 9.73766 93.5344 9.52592C93.8056 9.31151 94.0742 9.09709 94.3454 8.88535C94.3996 8.67094 94.4539 8.45652 94.5081 8.24478H94.6709C94.7251 8.03037 94.7794 7.81595 94.8336 7.60421H94.9964V7.12445H95.1591V6.16226H95.3218C95.2133 5.36087 95.1049 4.55949 94.9964 3.75811H94.8336V3.27835H94.6709V2.95672C94.5624 2.90312 94.4539 2.84951 94.3454 2.79591V2.47428C94.2369 2.42068 94.1284 2.36708 94.0199 2.31347V1.99185H93.8572C93.6944 1.77743 93.5317 1.56301 93.3717 1.35128H93.0462C92.9377 1.19046 92.8292 1.02965 92.7207 0.871517C92.5037 0.817913 92.2867 0.764309 92.0724 0.710704V0.549892H91.7469V0.389079H91.2614V0.228266C90.605 -0.00491246 88.6738 -0.00223225 88.0174 0.228266V0.389079H87.5319V0.549892H87.2064V0.710704C86.9895 0.764309 86.7725 0.817913 86.5582 0.871517C86.504 0.978726 86.4497 1.08593 86.3955 1.19314H86.07C86.0157 1.30035 85.9615 1.40756 85.9072 1.51477C85.636 1.72919 85.3675 1.9436 85.0962 2.15534V2.47696C84.9877 2.53057 84.8792 2.58417 84.7708 2.63778C84.6623 2.9594 84.5538 3.27835 84.4453 3.59997H84.2825C84.2283 4.02881 84.174 4.45496 84.1198 4.8838H83.957C83.7021 5.75486 84.3558 7.92316 84.6053 8.41096C84.7219 8.64145 85.2074 9.22842 85.0908 9.69478H84.9281C84.8738 10.0164 84.8196 10.3353 84.7653 10.657H84.6026C84.5483 10.8714 84.4941 11.0858 84.4398 11.2975H84.2771V11.6192H84.1143V12.0989H83.9516V12.4206H83.7889V12.7422C83.3684 13.5221 82.8368 14.2806 81.8414 14.5058C81.4454 14.8461 80.0973 14.6666 79.4084 14.6666H45.9812C45.7018 14.3449 45.6042 14.5299 45.333 14.3449C45.2787 14.2377 45.2245 14.1305 45.1702 14.0233C44.899 13.8089 44.6305 13.5945 44.3592 13.3828C44.1965 12.903 44.0337 12.4206 43.8737 11.9408H43.711V11.6192H43.5482C43.494 11.4048 43.4397 11.1903 43.3855 10.9786H43.2227V10.4988H43.06V10.1772H42.8973C42.6314 9.42676 43.1902 8.16706 43.3828 7.77307H43.5455C43.5998 7.34423 43.654 6.91808 43.7083 6.48924H43.871C44.126 5.62621 43.7327 4.56753 43.5455 4.08509V3.60533H43.3828V3.28371H43.22C43.1658 3.06929 43.1115 2.85487 43.0573 2.64314C42.9488 2.58953 42.8403 2.53593 42.7318 2.48233V2.1607C42.6233 2.1071 42.5148 2.05349 42.4063 1.99989C42.1893 1.73187 41.9723 1.46652 41.7581 1.1985H41.4326C41.3783 1.09129 41.3241 0.984086 41.2698 0.876878C40.9444 0.769669 40.6216 0.662461 40.2961 0.555252V0.394439H39.8106C39.3196 0.209505 38.251 -0.173766 37.3776 0.0728137C36.5368 0.311353 35.6064 0.598135 34.9446 1.03501C34.8904 1.14222 34.8361 1.24943 34.7819 1.35664H34.4564C34.3479 1.51745 34.2394 1.67826 34.1309 1.83639H33.9682V2.15802C33.8054 2.26523 33.6427 2.37244 33.4826 2.47965C33.4284 2.69406 33.3741 2.90848 33.3199 3.12022H33.1572C33.1029 3.33463 33.0487 3.54905 32.9944 3.76079H32.8317C32.5794 4.33703 32.4628 6.30699 32.6689 6.96632H32.8317V7.60689H32.9944C33.0487 7.82131 33.1029 8.03573 33.1572 8.24746H33.3199V8.56909C33.4284 8.62269 33.5369 8.6763 33.6454 8.7299V9.05153C33.8081 9.15874 33.9709 9.26594 34.1309 9.37315C34.3479 9.64117 34.5649 9.90651 34.7791 10.1745H35.1046C35.1589 10.2817 35.2131 10.389 35.2674 10.4962C35.5929 10.6034 35.9156 10.7106 36.2411 10.8178V10.9786C36.6208 11.0322 36.9979 11.0858 37.3776 11.1394C37.4318 11.2466 37.4861 11.3538 37.5403 11.461H37.8658C38.2456 12.2088 38.6226 12.9566 39.0023 13.7071C38.9481 13.9751 38.8938 14.2404 38.8396 14.5084C36.2954 14.956 32.9049 14.6693 30.0786 14.6693C29.0154 14.6693 27.6375 14.6076 26.8346 14.8301H25.2126V14.9909H24.4016V15.1517H23.7534V15.3125H23.1051V15.4733H22.6196V15.6341H22.1341V15.7949H21.6486V15.9558C21.4316 16.0094 21.2146 16.063 21.0003 16.1166V16.2774H20.6749V16.4382H20.3494V16.599H20.0239L19.6984 16.9206H19.3729C19.3187 17.0278 19.2644 17.135 19.2102 17.2423C18.9932 17.2959 18.7762 17.3495 18.5619 17.4031C18.4534 17.5639 18.3449 17.7247 18.2364 17.8828H17.911C17.8025 18.0436 17.694 18.2045 17.5855 18.3626H17.26C16.9887 18.6842 16.7202 19.0032 16.449 19.3248C16.015 19.7 15.5837 20.0726 15.1498 20.4478V20.7694C14.9328 20.9302 14.7158 21.091 14.5015 21.2492V21.5708C14.393 21.6244 14.2845 21.678 14.176 21.7316V22.0532C14.0675 22.1068 13.959 22.1604 13.8505 22.2141V22.5357C13.742 22.5893 13.6336 22.6429 13.5251 22.6965C13.4708 22.9109 13.4166 23.1253 13.3623 23.3371H13.1996V23.6587H13.0368C12.9283 23.9803 12.8198 24.2993 12.7113 24.6209H12.5486C12.4944 24.9425 12.4401 25.2615 12.3859 25.5831H12.2231C11.5396 27.2984 11.4121 29.3005 11.4121 31.6752C11.4121 32.9054 11.7403 35.3364 11.0866 36.0037C10.9239 36.2182 10.7612 36.4326 10.6011 36.6443C9.46465 36.7515 8.32817 36.8587 7.1944 36.9659V37.1268H6.54614C3.69545 38.223 1.70729 40.4475 0.70371 43.3797C0.649463 44.5563 0.595216 45.7302 0.540968 46.9068V53.6422C0.540968 56.6092 0.0825786 61.2782 1.02648 63.4223H1.18922V63.7439H1.35197V64.0656H1.51471V64.3872L1.84019 64.7088V65.0304C1.94869 65.0841 2.05718 65.1377 2.16567 65.1913V65.5129C2.43691 65.7273 2.70544 65.9417 2.97667 66.1535V66.4751C3.13941 66.5287 3.30216 66.5823 3.46219 66.6359C3.67917 66.9039 3.89616 67.1693 4.11044 67.4373H4.43592C4.49017 67.5445 4.54442 67.6517 4.59867 67.7589C5.46391 68.1341 6.32915 68.5067 7.1944 68.8819C8.16814 68.9355 9.14188 68.9891 10.1156 69.0427V69.2035H10.6011V69.3643C10.7639 69.418 10.9266 69.4716 11.0866 69.5252C11.545 71.865 11.4121 75.1858 11.4121 78.0241V98.8681H11.5749V99.3479H11.7376V99.6695C12.0631 100.098 12.3859 100.525 12.7113 100.953H13.0368C13.0911 101.061 13.1453 101.168 13.1996 101.275H13.5251C13.5793 101.382 13.6336 101.489 13.6878 101.597H14.1733C16.2428 102.441 17.7536 101.377 19.042 100.474C19.1505 100.313 19.259 100.152 19.3675 99.9938H19.693C19.8557 99.7794 20.0185 99.565 20.1785 99.3533H20.504C20.5582 99.246 20.6125 99.1388 20.6667 99.0316C20.8295 98.978 20.9922 98.9244 21.1522 98.8708C21.315 98.6564 21.4777 98.442 21.6377 98.2302H21.9632C22.0175 98.123 22.0717 98.0158 22.126 97.9086C22.2887 97.855 22.4515 97.8014 22.6115 97.7478C22.7742 97.5334 22.937 97.319 23.097 97.1072H23.4225C23.531 96.9464 23.6395 96.7856 23.748 96.6275H24.0734C24.1819 96.4667 24.2904 96.3059 24.3989 96.1477H24.7244C24.8872 95.9333 25.0499 95.7189 25.2099 95.5071H25.5354C25.5897 95.3999 25.6439 95.2927 25.6982 95.1855C25.8609 95.1319 26.0236 95.0783 26.1837 95.0247C26.3464 94.8103 26.5091 94.5959 26.6692 94.3841H26.9947C27.0489 94.2769 27.1032 94.1697 27.1574 94.0625C27.3201 94.0089 27.4829 93.9553 27.6429 93.9017C27.8057 93.6873 27.9684 93.4729 28.1284 93.2611H28.4539C28.5082 93.1539 28.5624 93.0467 28.6167 92.9395C28.7794 92.8859 28.9421 92.8323 29.1022 92.7787C29.2649 92.5643 29.4277 92.3499 29.5877 92.1381H29.9132C29.9674 92.0309 30.0217 91.9237 30.0759 91.8165C30.2386 91.7629 30.4014 91.7093 30.5614 91.6557C30.7242 91.4413 30.8869 91.2268 31.0469 91.0151H31.3724C31.4809 90.8543 31.5894 90.6935 31.6979 90.5354H32.0234V90.3745H44.5165C45.8998 90.3745 47.8175 90.5354 48.7343 90.0529C48.7885 89.9457 48.8428 89.8385 48.897 89.7313H49.2225C49.6809 89.4124 50.858 87.437 50.5217 86.365H50.359V85.8852H50.1962V85.4054C50.0877 85.3518 49.9792 85.2982 49.8707 85.2446V84.923H49.708C49.491 84.655 49.274 84.3896 49.0597 84.1216C48.6068 84.0251 48.284 83.7544 47.9233 83.6419H35.5901C33.7078 83.6419 31.1419 83.414 29.7477 83.9635V84.1243C29.5307 84.1779 29.3137 84.2315 29.0995 84.2851V84.4459H28.6139C28.5597 84.5531 28.5054 84.6603 28.4512 84.7675C28.2342 84.8211 28.0172 84.8747 27.8029 84.9284C27.6945 85.0892 27.586 85.25 27.4775 85.4081H27.152C26.9892 85.6225 26.8265 85.8369 26.6665 86.0487H26.341C26.2325 86.2095 26.124 86.3703 26.0155 86.5284H25.69C25.5273 86.7429 25.3645 86.9573 25.2045 87.169H24.879C24.7705 87.3298 24.662 87.4906 24.5535 87.6488H24.2281C24.0653 87.8632 23.9026 88.0776 23.7425 88.2893H23.4171C23.3086 88.4501 23.2001 88.611 23.0916 88.7691H22.7661C22.6576 88.9299 22.5491 89.0907 22.4406 89.2489H22.1151C21.9524 89.4633 21.7896 89.6777 21.6296 89.8894C21.4669 89.943 21.3041 89.9966 21.1441 90.0502C21.0898 90.1574 21.0356 90.2647 20.9813 90.3719H20.6559C20.4931 90.5863 20.3304 90.8007 20.1704 91.0124H19.8449C19.7364 91.1732 19.6279 91.3341 19.5194 91.4922H19.1939C19.1397 91.5994 19.0854 91.7066 19.0312 91.8138C18.8277 91.9987 18.5592 92.0818 18.3829 92.2936H18.2202V34.2348C18.2202 31.7181 18.0927 29.0942 18.8684 27.3413H19.0312C19.0854 27.1269 19.1397 26.9125 19.1939 26.7007H19.3566C19.4109 26.4863 19.4651 26.2719 19.5194 26.0602C19.6279 26.0066 19.7364 25.9529 19.8449 25.8993V25.5777C19.9534 25.5241 20.0619 25.4705 20.1704 25.4169V25.0953C20.3873 24.9345 20.6043 24.7737 20.8186 24.6155C21.1441 24.2403 21.4669 23.8677 21.7923 23.4925H22.1178C22.2263 23.3317 22.3348 23.1709 22.4433 23.0128C22.6603 22.9592 22.8773 22.9055 23.0916 22.8519C23.1458 22.7447 23.2001 22.6375 23.2543 22.5303C23.5255 22.4767 23.7941 22.4231 24.0653 22.3695V22.2087H24.3908V22.0479C24.7163 21.9943 25.039 21.9407 25.3645 21.8871V21.7263H26.1755C27.0625 21.4636 28.5922 21.5654 29.745 21.5654H97.5704C100.527 21.5654 103.011 21.4502 105.035 22.3668V22.5276H105.36C105.415 22.6348 105.469 22.7421 105.523 22.8493C105.74 22.9029 105.957 22.9565 106.171 23.0101C106.226 23.1173 106.28 23.2245 106.334 23.3317H106.66C106.877 23.5997 107.094 23.8651 107.308 24.1331C107.688 24.4547 108.065 24.7737 108.444 25.0953V25.4169C108.607 25.5241 108.77 25.6313 108.93 25.7385C108.984 25.9529 109.038 26.1674 109.093 26.3791H109.255V26.7007H109.418C109.526 27.0224 109.635 27.3413 109.743 27.6629H109.906C109.96 28.0382 110.015 28.4107 110.069 28.7859H110.232C110.286 29.9625 110.34 31.1365 110.394 32.3131V64.8616C110.394 69.8334 111.064 76.6921 109.095 79.7743C108.987 79.8279 108.878 79.8815 108.77 79.9351V80.2567C108.661 80.3103 108.553 80.364 108.444 80.4176V80.7392C108.227 80.9 108.01 81.0608 107.796 81.2189C107.471 81.5942 107.148 81.9667 106.822 82.3419H106.497C106.443 82.4492 106.388 82.5564 106.334 82.6636C105.469 83.0924 104.604 83.5186 103.738 83.9474C102.648 84.3333 100.977 84.269 99.5206 84.269H73.0723C72.8445 83.9903 72.9069 84.2342 72.7468 84.1082C72.6383 83.9474 72.5298 83.7866 72.4213 83.6284H72.2586V83.3068C72.1501 83.2532 72.0416 83.1996 71.9331 83.146V82.8244C71.7161 82.6636 71.4991 82.5028 71.2849 82.3446C71.0679 82.0766 70.8509 81.8113 70.6366 81.5432H70.3111C70.2026 81.3824 70.0941 81.2216 69.9856 81.0635C69.6602 80.9563 69.3374 80.8491 69.0119 80.7419V80.581H68.6864V80.4202C68.3609 80.3666 68.0382 80.313 67.7127 80.2594V80.0986H66.9017V79.9378C65.8195 79.9914 64.7372 80.045 63.6577 80.0986V80.2594C63.3322 80.313 63.0094 80.3666 62.684 80.4202V80.581C62.467 80.6347 62.25 80.6883 62.0357 80.7419V80.9027H61.7102C61.656 81.0099 61.6017 81.1171 61.5475 81.2243H61.222C61.1677 81.3315 61.1135 81.4387 61.0593 81.5459H60.7338C60.4625 81.8675 60.194 82.1865 59.9228 82.5081C59.76 82.6153 59.5973 82.7225 59.4373 82.8298V83.1514C59.3288 83.205 59.2203 83.2586 59.1118 83.3122V83.6338C59.0033 83.6874 58.8948 83.741 58.7863 83.7946V84.1162H58.6236C58.5693 84.3307 58.5151 84.5451 58.4608 84.7568H58.2981V85.2366C58.035 85.8879 57.4762 87.6032 57.8125 88.7637C58.138 89.7259 58.4608 90.6881 58.7863 91.6503C58.8948 91.7039 59.0033 91.7575 59.1118 91.8111V92.1328C59.2745 92.24 59.4373 92.3472 59.5973 92.4544V92.776C59.7058 92.8296 59.8143 92.8832 59.9228 92.9368C60.1398 93.2048 60.3567 93.4702 60.571 93.7382H60.8965C61.005 93.899 61.1135 94.0598 61.222 94.218C62.2771 94.9148 64.8864 95.8181 66.5762 95.341H67.5499V95.1802H68.0355V95.0193H68.521V94.8585H68.8465V94.6977H69.1719V94.5369H69.4974L69.8229 94.2153H70.1484C70.2569 94.0545 70.3654 93.8937 70.4739 93.7355H70.7994C70.8536 93.6283 70.9079 93.5211 70.9621 93.4139C71.2333 93.1995 71.5019 92.9851 71.7731 92.7733V92.4517C71.9358 92.3445 72.0986 92.2373 72.2586 92.1301C72.5814 91.6825 72.4458 91.5056 73.0696 91.3287C73.4656 90.9883 74.8137 91.1679 75.5026 91.1679H96.9221C100.351 91.1679 103.611 91.1491 106.009 90.2057H106.494C111.818 87.9382 114.965 84.4727 116.88 78.8228V78.0214C117.314 76.6143 117.205 74.438 117.205 72.5699C117.205 71.6184 117.051 70.3373 117.531 69.8441C118.274 68.6139 120.205 69.2571 121.588 68.7211V68.5603H122.074V68.3995C122.399 68.2923 122.722 68.1851 123.048 68.0779V67.917C123.265 67.8634 123.482 67.8098 123.696 67.7562C123.804 67.5954 123.913 67.4346 124.021 67.2765H124.347C124.672 66.9012 124.995 66.5287 125.321 66.1535C125.538 65.9927 125.755 65.8318 125.969 65.6737V65.3521C126.132 65.2449 126.294 65.1377 126.454 65.0304C126.509 64.816 126.563 64.6016 126.617 64.3899H126.78C126.888 64.0683 126.997 63.7493 127.105 63.4277H127.268C127.954 61.8732 127.754 59.2037 127.754 57.0139L127.773 57.0032ZM51.8318 47.5421H51.669C51.5606 47.2204 51.4521 46.9015 51.3436 46.5799H51.1808C51.1266 46.3654 51.0723 46.151 51.0181 45.9393C50.9096 45.8857 50.8011 45.8321 50.6926 45.7785V45.4569C50.4756 45.296 50.2586 45.1352 50.0443 44.9771V44.6555C49.9358 44.6019 49.8274 44.5483 49.7189 44.4947C49.5019 44.2266 49.2849 43.9613 49.0706 43.6933H48.7451C48.6366 43.5325 48.5281 43.3717 48.4196 43.2135C46.8519 42.1334 44.5572 41.2838 41.9289 41.2891V41.4499H40.6297V41.6108H39.8187V41.7716H39.3332V41.9324H38.8477V42.0932H38.5222V42.254C38.251 42.3076 37.9825 42.3612 37.7112 42.4148C37.657 42.522 37.6027 42.6292 37.5485 42.7364C37.3315 42.79 37.1145 42.8437 36.9002 42.8973C36.846 43.0045 36.7917 43.1117 36.7375 43.2189H36.412C35.978 43.6986 35.5467 44.1811 35.1128 44.6608C34.8415 44.8753 34.573 45.0897 34.3018 45.3014V45.623C34.1933 45.6766 34.0848 45.7302 33.9763 45.7838C33.922 45.9983 33.8678 46.2127 33.8135 46.4244C33.7051 46.478 33.5966 46.5316 33.4881 46.5852V46.9068H33.3253V47.3866H33.1626V47.7082H32.9998V48.188H32.8371V48.6678H32.6744V49.3083H32.5116V50.5921H32.3489C32.4031 51.4471 32.4574 52.3021 32.5116 53.1571H32.6744C32.7286 53.5859 32.7828 54.0121 32.8371 54.4409H32.9998V54.7626H33.1626V55.2423H33.3253C33.3796 55.4567 33.4338 55.6711 33.4881 55.8829H33.6508V56.2045C33.7593 56.2581 33.8678 56.3117 33.9763 56.3653C34.0305 56.5797 34.0848 56.7942 34.139 57.0059C34.356 57.1667 34.573 57.3275 34.7873 57.4856V57.8073C35.1128 58.0753 35.4355 58.3406 35.761 58.6087C35.8153 58.7159 35.8695 58.8231 35.9238 58.9303H36.2493C36.3577 59.0911 36.4662 59.2519 36.5747 59.41H36.9002C36.9545 59.5173 37.0087 59.6245 37.063 59.7317C37.3884 59.8389 37.7112 59.9461 38.0367 60.0533V60.2141C38.2537 60.2677 38.4707 60.3213 38.685 60.3749V60.5357H39.1705V60.6965C39.8214 60.9512 42.6694 61.4684 43.7137 61.1763V61.0155H44.6874V60.8547H45.3357V60.6939H45.8212V60.5331C46.0924 60.4795 46.3609 60.4258 46.6322 60.3722V60.2114H46.9577V60.0506H47.2831C47.3374 59.9434 47.3916 59.8362 47.4459 59.729C47.6629 59.6754 47.8799 59.6218 48.0941 59.5682C48.2026 59.4074 48.3111 59.2466 48.4196 59.0884H48.7451C49.0164 58.7668 49.2849 58.4478 49.5561 58.1262C49.8273 57.9118 50.0959 57.6974 50.3671 57.4856V57.164C50.5299 57.0568 50.6926 56.9496 50.8526 56.8424C50.9069 56.628 50.9611 56.4136 51.0154 56.2018C51.1239 56.1482 51.2324 56.0946 51.3408 56.041V55.7194H51.5036V55.3978H51.6663V54.918H51.8291V54.5964H51.9918V53.9558H52.1546V53.4761H52.3173V52.5139H52.48C52.8679 51.1925 52.1329 48.775 51.8318 48.0245V47.5447V47.5421ZM43.7191 56.041H41.2861C39.6424 55.5613 38.3242 54.3257 37.7166 52.8355V52.1949C37.6109 51.8706 37.3749 50.836 37.5539 50.2705H37.7166C37.7709 49.9489 37.8251 49.6299 37.8794 49.3083H38.0421V48.9867H38.2049V48.6651C38.3134 48.6115 38.4219 48.5579 38.5303 48.5043V48.1826C38.7473 48.0218 38.9643 47.861 39.1786 47.7029C39.2329 47.5957 39.2871 47.4885 39.3413 47.3812H39.6668C39.7211 47.274 39.7753 47.1668 39.8296 47.0596H40.1551V46.8988H40.4805V46.738C40.806 46.6844 41.1288 46.6308 41.4543 46.5772V46.4164C44.3185 46.3628 45.3519 47.0007 46.4857 48.6624C46.5942 48.716 46.7027 48.7696 46.8112 48.8232V49.1448H46.9739V49.6246C48.2596 52.7685 45.9839 55.3066 43.73 56.0383L43.7191 56.041ZM92.8861 44.0149C92.6692 43.7469 92.4522 43.4815 92.2379 43.2135H91.9124C91.8582 43.1063 91.8039 42.9991 91.7497 42.8919C90.3745 42.0208 87.9713 41.2838 85.7472 41.2891C85.4027 41.5813 84.8223 41.2891 84.2879 41.4499V41.6108H83.6397V41.7716H83.1542V41.9324H82.6687V42.0932H82.1832V42.254C81.9662 42.3076 81.7492 42.3612 81.5349 42.4148V42.5756H81.2094C81.1552 42.6828 81.1009 42.79 81.0467 42.8973H80.7212C80.6669 43.0045 80.6127 43.1117 80.5584 43.2189H80.233C80.0702 43.4333 79.9075 43.6477 79.7474 43.8595H79.422V44.0203C79.205 44.1811 78.988 44.3419 78.7737 44.5V44.8216C78.5567 44.9825 78.3397 45.1433 78.1255 45.3014V45.623C78.017 45.6766 77.9085 45.7302 77.8 45.7838V46.1055C77.6915 46.1591 77.583 46.2127 77.4745 46.2663C77.4202 46.4807 77.366 46.6951 77.3117 46.9068H77.149C77.0948 47.1213 77.0405 47.3357 76.9863 47.5474H76.8235V48.0272H76.6608V48.5069H76.498V49.1475H76.3353V50.2705H76.1725V52.3557H76.3353V53.3179H76.498V53.9585H76.6608C76.715 54.2801 76.7693 54.5991 76.8235 54.9207H76.9863C77.0947 55.2423 77.2032 55.5613 77.3117 55.8829H77.4745C77.5287 56.0973 77.583 56.3117 77.6372 56.5235H77.8C77.8542 56.6843 77.9085 56.8451 77.9627 57.0032C78.0712 57.0568 78.1797 57.1104 78.2882 57.164V57.4856C78.6137 57.7537 78.9364 58.019 79.2619 58.287C79.4789 58.5551 79.6959 58.8204 79.9102 59.0884H80.2357C80.2899 59.1956 80.3442 59.3028 80.3984 59.41H80.7239C80.7781 59.5173 80.8324 59.6245 80.8866 59.7317H81.2121C81.2664 59.8389 81.3206 59.9461 81.3749 60.0533H81.7003V60.2141H82.1859V60.3749C82.4028 60.4285 82.6198 60.4821 82.8341 60.5357V60.6965C83.4634 60.9458 86.5338 61.4631 87.5401 61.1763C88.6223 60.8547 89.7045 60.5357 90.7841 60.2141C90.8383 60.1069 90.8926 59.9997 90.9468 59.8925C91.1638 59.8389 91.3808 59.7853 91.5951 59.7317C91.6493 59.6245 91.7035 59.5173 91.7578 59.41H92.0833C92.1918 59.2492 92.3003 59.0884 92.4088 58.9303H92.7342C92.8427 58.7695 92.9512 58.6087 93.0597 58.4505C93.3852 58.1825 93.708 57.9172 94.0335 57.6491V57.3275C94.1962 57.2203 94.3589 57.1131 94.519 57.0059V56.6843C94.6275 56.6307 94.736 56.5771 94.8445 56.5235V56.2018L95.17 55.8802V55.5586H95.3327V55.237H95.4954V54.9153H95.6582V54.4356C96.263 52.9454 96.5424 51.0612 95.9837 49.3056V48.6651H95.8209V48.0245H95.6582V47.7029H95.4954C95.3327 47.2231 95.17 46.7407 95.0099 46.2609C94.9014 46.2073 94.7929 46.1537 94.6844 46.1001V45.7785C94.5759 45.7249 94.4674 45.6713 94.3589 45.6177V45.296C94.142 45.1352 93.925 44.9744 93.7107 44.8163V44.4947C93.548 44.3875 93.3852 44.2802 93.2252 44.173V44.0122H92.8997L92.8861 44.0149ZM87.5319 56.041H84.9362V55.8802H84.4507V55.7194C84.1252 55.6122 83.8024 55.505 83.4769 55.3978C83.4227 55.2906 83.3684 55.1833 83.3142 55.0761C82.8802 54.7009 82.449 54.3284 82.015 53.9531C81.9607 53.7387 81.9065 53.5243 81.8522 53.3126H81.6895C81.6353 52.9909 81.581 52.672 81.5268 52.3504C81.3911 51.9751 81.1687 50.7235 81.364 50.1043H81.5268V49.6246H81.6895C81.798 49.303 81.9065 48.984 82.015 48.6624H82.1777V48.3408C82.449 48.1264 82.7175 47.9119 82.9887 47.7002C83.043 47.593 83.0972 47.4858 83.1515 47.3786H83.4769C83.5312 47.2714 83.5854 47.1642 83.6397 47.0569H83.9652V46.8961C84.1822 46.8425 84.3991 46.7889 84.6134 46.7353V46.5745H85.2617V46.4137C87.9795 46.3628 89.0509 46.9229 90.1304 48.4989C90.2389 48.5525 90.3474 48.6061 90.4559 48.6597V48.9813H90.6186C90.6729 49.1958 90.7271 49.4102 90.7813 49.6219H90.9441V50.2625C91.8717 53.0713 89.4197 55.4246 87.5374 56.0357L87.5319 56.041Z" fill="#353535"/>
</g>
<defs>
<clipPath id="clip0_144_1092">
<rect width="127.354" height="101.883" fill="white" transform="translate(0.446289)"/>
</clipPath>
</defs>
</svg>
