<svg width="376" height="143" viewBox="0 0 376 143" fill="none" xmlns="http://www.w3.org/2000/svg">
<path d="M113.478 71.5078L108.036 77.0014L122.219 91.3008L127.661 85.8158L136.406 77.0014L141.847 71.5164L113.478 71.5078Z" fill="#004324"/>
<path d="M70.9259 0L42.5479 28.6045H70.906H99.2756L99.2955 28.5844L85.1121 14.2994L70.9259 0Z" fill="#009844"/>
<path d="M0 71.489L14.1862 85.7855L56.7306 42.9017L42.5557 28.6138L0 71.489Z" fill="#6CBB65"/>
<path d="M62.1831 94.6202L47.9998 80.3237L42.5525 85.8087L33.8079 94.6202L28.3691 100.105H56.7529L62.1831 94.6202Z" fill="#6CBB65"/>
<path d="M56.7383 71.4967H85.1021L99.3025 57.2116V28.6157L56.7383 71.4967Z" fill="#009844"/>
<path d="M99.2939 57.2116L113.48 71.4967H141.85L127.664 57.2116L113.48 42.9122L99.2939 28.6157V57.2116Z" fill="#004324"/>
<path d="M56.7529 100.107H28.3691L42.5525 114.404L56.7529 128.703L70.9362 143V114.404L56.7529 100.107Z" fill="#009844"/>
<path d="M99.3025 85.8082L85.1021 71.5117H56.7383L70.9216 85.8082L85.1021 100.105L70.916 114.404V143L85.1021 128.701L99.3025 114.404L113.486 100.105L99.3025 85.8082Z" fill="#004324"/>
<path d="M173.798 49.3558L163.544 57.9257L158.459 51.6869L174.842 38.6484H183.371V103.654H173.798V49.3558Z" fill="black"/>
<path d="M207.705 89.1783C209.053 91.3731 210.969 93.1101 213.223 94.2008C215.394 95.2645 217.751 95.8166 220.146 95.8166C221.526 95.8098 222.892 95.5877 224.208 95.1568C225.562 94.7326 226.839 94.0728 227.976 93.1909C229.1 92.3291 230.045 91.2317 230.754 89.966C231.489 88.6127 231.859 87.071 231.834 85.509C231.961 83.4354 231.163 81.4156 229.681 80.0489C228.078 78.6956 226.271 77.6319 224.336 76.8981C222.209 76.0565 219.891 75.2351 217.381 74.4474C214.935 73.6934 212.597 72.5892 210.426 71.1686C208.267 69.7346 206.434 67.8091 205.08 65.5335C203.509 62.625 202.762 59.3059 202.928 55.9598C203.017 51.6846 204.684 47.6046 207.571 44.6019C209.353 42.7841 211.454 41.3501 213.747 40.3604C216.633 39.1485 219.718 38.5695 222.822 38.6571C225.939 38.6436 229.036 39.1149 232.025 40.0574C235.078 41.0875 237.767 43.0669 239.734 45.7397L233.264 51.9404C232.21 50.2573 230.754 48.8973 229.036 48.0086C227.108 46.992 224.974 46.4803 222.816 46.5207C220.938 46.4601 219.073 46.7765 217.304 47.4431C215.982 47.948 214.781 48.7492 213.779 49.786C212.948 50.6612 212.31 51.7183 211.914 52.8897C211.575 53.8727 211.39 54.9028 211.377 55.9463C211.237 58.1882 212.022 60.3898 213.53 61.9787C215.094 63.4598 216.908 64.6111 218.875 65.3854C221.149 66.3077 223.467 67.0887 225.83 67.7283C228.257 68.3948 230.595 69.3778 232.785 70.657C234.906 71.9025 236.732 73.6328 238.131 75.7266C239.702 78.3523 240.456 81.4223 240.29 84.5193C240.328 87.2931 239.779 90.04 238.674 92.558C237.652 94.874 236.164 96.9274 234.324 98.5904C232.415 100.267 230.218 101.546 227.855 102.347C225.287 103.236 222.599 103.673 219.897 103.653C216.238 103.673 212.61 102.96 209.206 101.559C205.981 100.28 203.183 98.0316 201.165 95.0895L207.718 89.1581L207.705 89.1783Z" fill="black"/>
<path d="M268.783 56.7056H258.106V103.654H268.783V56.7056Z" fill="black"/>
<path d="M374.255 69.3165C373.475 67.3883 372.261 65.6424 370.709 64.2093C369.224 62.8738 367.447 61.8706 365.515 61.2582C363.542 60.6329 361.481 60.3137 359.406 60.3202C356.246 60.2615 353.127 60.9911 350.347 62.4373C348.517 63.3819 346.944 64.7174 345.75 66.346V61.356H336.4V103.654H345.757V81.8958C345.717 79.8699 346.008 77.8569 346.625 75.9221C347.113 74.4108 347.927 73.0232 349.025 71.8376C350.002 70.8083 351.215 70.0136 352.571 69.512C355.121 68.5934 357.921 68.5218 360.518 69.3035C361.596 69.6488 362.586 70.2286 363.4 70.9907C364.301 71.8637 364.986 72.919 365.42 74.072C365.969 75.5769 366.227 77.1664 366.193 78.7624V103.641H375.543V76.5931C375.597 74.1046 375.15 71.6292 374.235 69.3035" fill="black"/>
<path d="M313.128 57.8432V60.9221C312.018 59.9004 310.767 59.0582 309.416 58.4231C304.587 56.1932 299.076 56.1311 294.201 58.2574C291.92 59.2515 289.873 60.7288 288.188 62.5928C286.516 64.4706 285.219 66.6659 284.362 69.0545C283.46 71.5743 283.005 74.239 283.018 76.9245C282.998 79.5962 283.473 82.254 284.429 84.7393C286.235 89.482 289.847 93.2513 294.421 95.1705C299.23 97.2278 304.641 97.1656 309.403 94.9979C310.781 94.349 312.038 93.4515 313.115 92.347V94.3697C313.115 95.7918 312.927 97.207 312.566 98.5808C312.232 99.8718 311.623 101.073 310.781 102.095C309.837 103.192 308.66 104.055 307.343 104.615C305.55 105.339 303.631 105.678 301.705 105.616C299.518 105.657 297.351 105.188 295.364 104.256C293.378 103.248 291.599 101.86 290.121 100.155L289.171 99.0917L283.092 106.906L283.921 107.693C286.315 110.048 289.165 111.849 292.281 112.982C295.371 114.017 298.601 114.521 301.845 114.487C304.654 114.521 307.45 114.024 310.092 113.037C312.493 112.132 314.693 110.738 316.552 108.929C318.345 107.155 319.763 105.015 320.706 102.64C321.695 100.107 322.19 97.4003 322.164 94.6665V57.857H313.128V57.8432ZM310.373 84.8428C306.059 88.7502 299.605 88.7502 295.284 84.8428C293.365 82.6958 292.368 79.8309 292.529 76.9107C292.515 75.3298 292.763 73.7558 293.264 72.2646C293.706 70.953 294.401 69.7517 295.304 68.73C296.207 67.7428 297.297 66.9627 298.508 66.4381C299.879 65.8513 301.344 65.5613 302.828 65.5889C304.306 65.5682 305.778 65.8582 307.149 66.4381C308.359 66.9627 309.45 67.7428 310.352 68.73C311.255 69.7517 311.951 70.9599 312.392 72.2646C312.901 73.7558 313.148 75.3298 313.135 76.9107C313.289 79.8309 312.299 82.6889 310.379 84.8428H310.373Z" fill="black"/>
</svg>
