<svg width="351" height="123" viewBox="0 0 351 123" fill="none" xmlns="http://www.w3.org/2000/svg">
<path d="M24.8008 17.3124L8.22249 31.1687L0 21.0815L26.4898 0H40.2791V105.105H24.8008V17.3124Z" fill="white"/>
<path d="M79.624 81.7C81.8029 85.2487 84.9008 88.0573 88.546 89.8207C92.0569 91.5407 95.8673 92.4333 99.7397 92.4333C101.97 92.4224 104.18 92.0632 106.307 91.3665C108.496 90.6807 110.562 89.6139 112.4 88.1879C114.217 86.7945 115.746 85.0202 116.892 82.9737C118.079 80.7856 118.678 78.2928 118.637 75.7673C118.843 72.4146 117.553 69.1488 115.157 66.9391C112.565 64.751 109.643 63.0311 106.514 61.8446C103.075 60.4839 99.3267 59.1558 95.2684 57.8822C91.3134 56.663 87.534 54.8777 84.023 52.5809C80.5327 50.2622 77.569 47.1489 75.3799 43.4696C72.8396 38.7669 71.6314 33.4003 71.8999 27.9901C72.0444 21.0777 74.7396 14.481 79.4071 9.626C82.2882 6.68687 85.6856 4.36822 89.3927 2.76803C94.0602 0.808606 99.0479 -0.127561 104.066 0.0139524C109.106 -0.00781894 114.114 0.754178 118.947 2.27817C123.883 3.94368 128.23 7.14407 131.411 11.4657L120.95 21.4914C119.246 18.77 116.892 16.5711 114.114 15.1341C110.995 13.4904 107.546 12.6631 104.056 12.7284C101.02 12.6304 98.0049 13.1421 95.1445 14.2198C93.0069 15.0362 91.0656 16.3316 89.4444 18.008C88.1019 19.4231 87.0693 21.1322 86.4291 23.0263C85.8818 24.6156 85.5823 26.2811 85.5616 27.9684C85.3345 31.5933 86.6046 35.1529 89.0416 37.7219C91.5716 40.1168 94.5043 41.9782 97.6848 43.2301C101.361 44.7214 105.109 45.9841 108.93 47.0183C112.854 48.096 116.634 49.6853 120.176 51.7535C123.604 53.7674 126.557 56.565 128.819 59.9505C131.359 64.1959 132.578 69.1597 132.309 74.1671C132.371 78.652 131.483 83.0934 129.696 87.1646C128.044 90.9093 125.638 94.2294 122.664 96.9182C119.577 99.6287 116.024 101.697 112.204 102.992C108.052 104.429 103.705 105.137 99.337 105.104C93.42 105.137 87.5546 103.983 82.0507 101.719C76.8359 99.6505 72.3129 96.0147 69.0498 91.2577L79.6446 81.6674L79.624 81.7Z" fill="white"/>
<path d="M178.379 29.1958H161.116V105.105H178.379V29.1958Z" fill="white"/>
<path d="M348.914 49.5864C347.653 46.4687 345.691 43.6458 343.18 41.3286C340.779 39.1694 337.907 37.5473 334.783 36.5572C331.592 35.546 328.26 35.0299 324.905 35.0405C319.796 34.9457 314.753 36.1253 310.259 38.4636C307.299 39.9909 304.755 42.1502 302.826 44.7834V36.7152H287.708V105.105H302.837V69.9254C302.771 66.6497 303.242 63.395 304.24 60.2668C305.029 57.8231 306.345 55.5796 308.121 53.6626C309.7 51.9984 311.662 50.7134 313.854 49.9024C317.976 48.4172 322.504 48.3014 326.703 49.5653C328.446 50.1236 330.047 51.061 331.362 52.2934C332.82 53.7048 333.927 55.4111 334.629 57.2754C335.517 59.7085 335.934 62.2786 335.879 64.8591V105.084H350.997V61.3517C351.084 57.3281 350.361 53.3256 348.881 49.5653" fill="white"/>
<path d="M250.08 31.0352V36.0135C248.285 34.3615 246.263 32.9997 244.078 31.9728C236.271 28.3674 227.36 28.267 219.477 31.7049C215.79 33.3122 212.481 35.7009 209.756 38.7147C207.052 41.7508 204.954 45.3003 203.57 49.1624C202.11 53.2365 201.375 57.5451 201.396 61.8871C201.364 66.2069 202.132 70.5043 203.678 74.5226C206.598 82.191 212.437 88.2855 219.834 91.3885C227.609 94.7148 236.357 94.6144 244.057 91.1095C246.285 90.0602 248.318 88.6092 250.059 86.8232V90.0937C250.059 92.3931 249.756 94.6813 249.172 96.9026C248.631 98.9899 247.647 100.932 246.285 102.584C244.76 104.359 242.857 105.754 240.726 106.658C237.828 107.83 234.725 108.377 231.61 108.277C228.074 108.344 224.57 107.585 221.359 106.078C218.147 104.448 215.271 102.205 212.881 99.4475L211.345 97.7286L201.515 110.364L202.856 111.637C206.728 115.443 211.334 118.356 216.374 120.187C221.37 121.861 226.593 122.676 231.837 122.62C236.379 122.676 240.899 121.872 245.171 120.276C249.053 118.814 252.611 116.559 255.617 113.635C258.515 110.766 260.807 107.306 262.332 103.466C263.933 99.3694 264.733 94.9939 264.69 90.5737V31.0575H250.08V31.0352ZM245.625 74.6901C238.65 81.0078 228.215 81.0078 221.229 74.6901C218.125 71.2186 216.514 66.5864 216.774 61.8648C216.752 59.3087 217.152 56.7638 217.963 54.3527C218.677 52.232 219.802 50.2897 221.261 48.6378C222.721 47.0416 224.484 45.7803 226.441 44.932C228.658 43.9832 231.026 43.5144 233.427 43.559C235.817 43.5255 238.196 43.9943 240.413 44.932C242.37 45.7803 244.133 47.0416 245.592 48.6378C247.052 50.2897 248.177 52.2431 248.891 54.3527C249.712 56.7638 250.113 59.3087 250.091 61.8648C250.34 66.5864 248.739 71.2075 245.636 74.6901H245.625Z" fill="white"/>
</svg>
